<?xml version="1.0" encoding="UTF-8" standalone="no"?>
<!-- Created with Inkscape (http://www.inkscape.org/) -->

<svg
   xmlns:dc="http://purl.org/dc/elements/1.1/"
   xmlns:cc="http://creativecommons.org/ns#"
   xmlns:rdf="http://www.w3.org/1999/02/22-rdf-syntax-ns#"
   xmlns:svg="http://www.w3.org/2000/svg"
   xmlns="http://www.w3.org/2000/svg"
   xmlns:sodipodi="http://sodipodi.sourceforge.net/DTD/sodipodi-0.dtd"
   xmlns:inkscape="http://www.inkscape.org/namespaces/inkscape"
   sodipodi:docname="nowel.svg"
   inkscape:version="0.47 r22583"
   version="1.1"
   id="svg2"
   height="992.12598"
   width="354.33069">
  <sodipodi:namedview
     id="base"
     pagecolor="#ffffff"
     bordercolor="#666666"
     borderopacity="1.0"
     inkscape:pageopacity="0.0"
     inkscape:pageshadow="2"
     inkscape:zoom="0.35"
     inkscape:cx="-235.01445"
     inkscape:cy="373.18125"
     inkscape:document-units="mm"
     inkscape:current-layer="layer1"
     showgrid="true"
     inkscape:snap-global="false"
     inkscape:window-width="1366"
     inkscape:window-height="716"
     inkscape:window-x="0"
     inkscape:window-y="0"
     inkscape:window-maximized="1"
     units="mm">
    <inkscape:grid
       spacingy="1mm"
       spacingx="1mm"
       units="mm"
       snapvisiblegridlinesonly="true"
       enabled="true"
       visible="true"
       dotted="false"
       empspacing="5"
       id="grid2816"
       type="xygrid" />
  </sodipodi:namedview>
  <defs
     id="defs4">
    <inkscape:perspective
       id="perspective10"
       inkscape:persp3d-origin="372.04724 : 350.78739 : 1"
       inkscape:vp_z="744.09448 : 526.18109 : 1"
       inkscape:vp_y="0 : 1000 : 0"
       inkscape:vp_x="0 : 526.18109 : 1"
       sodipodi:type="inkscape:persp3d" />
    <inkscape:perspective
       sodipodi:type="inkscape:persp3d"
       inkscape:vp_x="0 : 0.5 : 1"
       inkscape:vp_y="0 : 1000 : 0"
       inkscape:vp_z="1 : 0.5 : 1"
       inkscape:persp3d-origin="0.5 : 0.33333333 : 1"
       id="perspective2827" />
    <inkscape:perspective
       sodipodi:type="inkscape:persp3d"
       inkscape:vp_x="0 : 0.5 : 1"
       inkscape:vp_y="0 : 1000 : 0"
       inkscape:vp_z="1 : 0.5 : 1"
       inkscape:persp3d-origin="0.5 : 0.33333333 : 1"
       id="perspective3741" />
    <inkscape:perspective
       sodipodi:type="inkscape:persp3d"
       inkscape:vp_x="0 : 0.5 : 1"
       inkscape:vp_y="0 : 1000 : 0"
       inkscape:vp_z="1 : 0.5 : 1"
       inkscape:persp3d-origin="0.5 : 0.33333333 : 1"
       id="perspective2825" />
    <inkscape:perspective
       sodipodi:type="inkscape:persp3d"
       inkscape:vp_x="0 : 0.5 : 1"
       inkscape:vp_y="0 : 1000 : 0"
       inkscape:vp_z="1 : 0.5 : 1"
       inkscape:persp3d-origin="0.5 : 0.33333333 : 1"
       id="perspective3805" />
    <inkscape:perspective
       sodipodi:type="inkscape:persp3d"
       inkscape:vp_x="0 : 0.5 : 1"
       inkscape:vp_y="0 : 1000 : 0"
       inkscape:vp_z="1 : 0.5 : 1"
       inkscape:persp3d-origin="0.5 : 0.33333333 : 1"
       id="perspective2864" />
    <inkscape:perspective
       id="perspective3914"
       inkscape:persp3d-origin="0.5 : 0.33333333 : 1"
       inkscape:vp_z="1 : 0.5 : 1"
       inkscape:vp_y="0 : 1000 : 0"
       inkscape:vp_x="0 : 0.5 : 1"
       sodipodi:type="inkscape:persp3d" />
    <inkscape:perspective
       id="perspective3930"
       inkscape:persp3d-origin="0.5 : 0.33333333 : 1"
       inkscape:vp_z="1 : 0.5 : 1"
       inkscape:vp_y="0 : 1000 : 0"
       inkscape:vp_x="0 : 0.5 : 1"
       sodipodi:type="inkscape:persp3d" />
    <inkscape:perspective
       id="perspective3282"
       inkscape:persp3d-origin="0.5 : 0.33333333 : 1"
       inkscape:vp_z="1 : 0.5 : 1"
       inkscape:vp_y="0 : 1000 : 0"
       inkscape:vp_x="0 : 0.5 : 1"
       sodipodi:type="inkscape:persp3d" />
    <inkscape:perspective
       id="perspective3282-9"
       inkscape:persp3d-origin="0.5 : 0.33333333 : 1"
       inkscape:vp_z="1 : 0.5 : 1"
       inkscape:vp_y="0 : 1000 : 0"
       inkscape:vp_x="0 : 0.5 : 1"
       sodipodi:type="inkscape:persp3d" />
    <inkscape:perspective
       id="perspective2836"
       inkscape:persp3d-origin="0.5 : 0.33333333 : 1"
       inkscape:vp_z="1 : 0.5 : 1"
       inkscape:vp_y="0 : 1000 : 0"
       inkscape:vp_x="0 : 0.5 : 1"
       sodipodi:type="inkscape:persp3d" />
    <inkscape:perspective
       id="perspective3624"
       inkscape:persp3d-origin="0.5 : 0.33333333 : 1"
       inkscape:vp_z="1 : 0.5 : 1"
       inkscape:vp_y="0 : 1000 : 0"
       inkscape:vp_x="0 : 0.5 : 1"
       sodipodi:type="inkscape:persp3d" />
  </defs>
  <metadata
     id="metadata7">
    <rdf:RDF>
      <cc:Work
         rdf:about="">
        <dc:format>image/svg+xml</dc:format>
        <dc:type
           rdf:resource="http://purl.org/dc/dcmitype/StillImage" />
        <dc:title />
      </cc:Work>
    </rdf:RDF>
  </metadata>
  <g
     id="layer1"
     inkscape:groupmode="layer"
     inkscape:label="Layer 1"
     transform="translate(0,-60.236225)">
    <path
       id="path2870"
       d="m 39.318146,367.2558 c -3.682681,-3.68267 -3.846118,-6.11887 -0.805055,-11.99965 1.692968,-3.27383 2.059267,-6.71987 1.420612,-13.3648 -1.170873,-12.18231 0.132481,-13.5104 17.473154,-17.80579 7.766016,-1.92369 15.166895,-4.28149 16.446397,-5.23957 7.277698,-5.44947 11.123499,-10.07483 14.855132,-17.86633 3.576153,-7.4669 4.174489,-10.46836 4.175474,-20.94585 0.001,-10.90336 0.473866,-13.06763 4.359075,-19.95183 5.895015,-10.44538 5.724375,-16.02393 -0.726314,-23.74491 -6.020315,-7.20583 -6.280903,-10.38042 -1.490543,-18.15803 2.546715,-4.13481 3.591901,-7.94505 3.624166,-13.21179 0.03399,-5.54416 0.782294,-8.06817 2.982396,-10.05923 2.76371,-2.50112 3.23161,-2.51755 7.92734,-0.27832 2.74465,1.30885 8.97535,7.23512 13.84599,13.16951 l 8.85572,10.78979 8.27503,-2.26186 c 4.6236,-1.26379 14.09033,-2.26918 21.45392,-2.27845 11.78786,-0.0148 14.21996,0.47056 23.04222,4.59899 10.62811,4.9735 20.80587,6.03763 27.70052,2.8962 7.0303,-3.2032 18.46184,-33.18984 16.15563,-42.37856 -0.43985,-1.75249 -8.21182,-10.68725 -17.27104,-19.85502 -22.63853,-22.90979 -34.47968,-42.6046 -34.47968,-57.34837 0,-7.800518 8.67218,-12.561089 13.11978,-7.202058 1.35577,1.633583 3.45426,2.013174 7.80425,1.411678 7.36662,-1.018637 8.27858,-0.389642 12.99579,8.96343 3.69497,7.32623 9.00741,12.65987 11.23706,11.28186 0.60728,-0.37532 1.54545,-2.79939 2.08482,-5.38683 2.31423,-11.101636 9.3158,-14.566901 16.25699,-8.046 3.27713,3.07871 3.5538,3.10522 7.58096,0.72632 5.40173,-3.19088 7.60711,-3.11147 12.11735,0.43629 2.31093,1.81777 5.89305,2.90528 9.56973,2.90528 7.51866,0 12.53916,2.31126 14.53485,6.69132 1.97461,4.33379 0.37529,8.87749 -5.8525,16.62715 -2.53407,3.1533 -4.33475,5.89693 -4.00154,6.09699 0.3332,0.20004 3.1396,1.65501 6.23647,3.23326 3.76292,1.91771 6.89493,5.16326 9.44218,9.78442 2.31982,4.20861 4.82469,6.92305 6.4003,6.93579 9.14729,0.0739 19.92718,9.00345 19.92718,16.50665 0,10.50394 -13.78411,18.37768 -32.1728,18.37768 l -8.40321,0 3.01844,5.11587 c 4.22286,7.15721 3.42075,23.18103 -1.49308,29.82734 -1.85514,2.50921 -2.81588,5.02383 -2.135,5.58804 0.68089,0.56422 4.50643,1.82792 8.5012,2.80824 9.71053,2.38294 18.24355,8.46056 21.78963,15.51965 2.48312,4.94305 2.87617,8.42198 2.70491,23.94147 -0.16857,15.2779 -0.80139,20.00133 -3.98956,29.77918 -2.08404,6.39163 -4.34101,12.47167 -5.01547,13.51117 -0.67446,1.03953 -0.66181,5.48977 0.0281,9.88945 1.58567,10.11171 -0.36061,17.6925 -6.12727,23.86571 -3.93858,4.21627 -4.97327,4.59715 -10.5111,3.86916 -4.96168,-0.65227 -7.32929,-2.11148 -12.31622,-7.59085 -7.02089,-7.71415 -7.60193,-11.33416 -3.8481,-23.97466 1.99414,-6.71501 2.08518,-9.80653 0.63869,-21.69013 -2.31271,-18.99961 -2.68179,-20.39581 -5.39143,-20.39581 -1.30443,0 -7.53178,2.97632 -13.83853,6.61405 -27.57908,15.90761 -53.61245,26.76627 -58.98626,24.60345 -1.35549,-0.54554 -8.67457,-0.93218 -16.26462,-0.85923 -10.61723,0.10206 -15.64285,-0.55697 -21.78965,-2.85738 -13.72504,-5.1365 -13.7065,-5.13771 -16.3358,1.07172 -1.29591,3.06046 -3.48369,9.15031 -4.86172,13.53299 -1.37803,4.38267 -4.33381,9.79678 -6.5684,12.03138 -3.85935,3.85935 -4.52764,4.01526 -13.34018,3.1124 -11.716753,-1.20041 -14.955504,0.28472 -32.252353,14.78951 -15.551845,13.04146 -19.006999,15.013 -28.223711,16.10458 -5.874791,0.69579 -7.501853,0.3319 -10.090403,-2.25666 z"
       style="fill:none;stroke:#ff0000;stroke-width:1.86199999;stroke-miterlimit:4;stroke-opacity:1;stroke-dasharray:none" />
    <path
       style="fill:none;stroke:#ff0000;stroke-width:1.86199999;stroke-miterlimit:4;stroke-opacity:1;stroke-dasharray:none"
       d="m 104.98797,623.53136 c -4.64787,-2.37583 -6.355058,-4.69992 -6.209788,-8.45364 0.061,-1.57811 0.55954,-3.73661 1.10771,-4.79662 1.389468,-2.68697 7.412358,-5.88136 11.553168,-6.12752 0.59004,-0.0351 0.82953,-1.57471 0.82953,-5.33275 l 0,-5.28345 -2.4886,-0.67275 c -2.87937,-0.77839 -5.47494,-2.44311 -5.47494,-3.51145 0,-0.40681 -0.44,-1.22584 -0.97775,-1.82006 -0.60493,-0.66845 -1.08166,-2.92726 -1.25024,-5.92391 -0.26248,-4.66608 -0.37942,-4.95659 -3.192448,-7.93083 -3.62132,-3.82887 -6.66006,-7.77067 -8.02324,-10.40762 -1.66135,-3.21376 -5.69744,-15.62888 -6.14201,-18.89299 -0.76561,-5.62134 -0.85505,-5.79934 -3.13738,-6.24468 -4.06804,-0.79378 -8.67359,-3.85381 -10.33293,-6.86542 -1.39918,-2.53945 -1.55964,-3.6886 -1.59309,-11.40938 -0.0337,-7.76354 0.1142,-8.88765 1.54478,-11.74146 2.1979,-4.38467 4.33565,-5.75947 9.46346,-6.08598 l 4.21723,-0.26853 3.29669,-6.85629 3.29671,-6.85628 -1.6063,-1.6063 c -1.56015,-1.56015 -1.5778,-1.68999 -0.61423,-4.51967 0.54564,-1.60235 2.06485,-4.80851 3.37602,-7.1248 1.31116,-2.31627 2.38394,-4.45969 2.38394,-4.76314 0,-1.11845 3.55478,-3.30254 5.375168,-3.30254 1.16513,0 2.1339,-0.47808 2.55205,-1.25942 0.55136,-1.03021 0.34739,-1.47345 -1.12074,-2.4354 -2.213928,-1.45062 -3.159608,-2.19146 -5.253438,-4.11549 -0.90131,-0.82822 -1.89745,-1.34595 -2.21366,-1.15052 -0.31621,0.19542 -0.79103,0.006 -1.05513,-0.42167 -0.29991,-0.48527 -0.19255,-0.59921 0.28596,-0.30348 1.37749,0.85134 0.80528,-0.33142 -1.06534,-2.20204 -3.77378,-3.77377 -9.88406,-18.23248 -11.16701,-26.42443 -0.2419,-1.5446 -0.64712,-2.68023 -0.90048,-2.52365 -0.25336,0.15658 -0.34533,-0.52076 -0.20439,-1.50523 0.20651,-1.44232 -0.45331,-2.52009 -3.39764,-5.5498 -4.50551,-4.63615 -5.25168,-7.30592 -3.2141,-11.49988 l 1.36484,-2.80925 -2.04097,-2.23459 c -3.13536,-3.43277 -7.6428,-10.79494 -8.82843,-14.41979 -1.35943,-4.15623 -1.11096,-16.58192 0.36064,-18.03503 0.18483,-0.1825 1.37935,-1.72655 2.65451,-3.43122 3.67382,-4.91124 6.67312,-6.5232 12.13744,-6.5232 5.66253,0 7.56667,1.01781 11.38958,6.088 l 2.83902,3.76531 1.48521,-2.00884 c 1.91801,-2.59425 6.727688,-4.76118 9.309278,-4.19417 2.73584,0.60089 5.17244,2.71514 6.37993,5.53589 1.13727,2.65674 1.44975,11.30862 0.62094,17.19302 -0.44849,3.1843 -0.37887,3.48405 0.80932,3.48405 2.24116,0 4.41952,2.3521 5.71903,6.1752 1.50706,4.43366 1.20055,8.7621 -0.82155,11.60186 l -1.40363,1.97123 2.74656,1.8176 c 2.73568,1.81039 2.75077,1.81227 3.8039,0.47423 1.19069,-1.51281 5.29092,-4.11592 6.48905,-4.11969 0.43248,-0.001 1.62702,-0.34768 2.65451,-0.76958 1.86526,-0.76592 2.46126,-0.93216 4.02497,-1.12271 0.48301,-0.0588 0.82954,-1.0533 0.82954,-2.38057 0,-3.13422 0.98919,-5.45642 2.71852,-6.38193 2.22591,-1.19126 6.26901,0.35448 7.27411,2.78103 0.43254,1.04424 0.977,1.89863 1.20991,1.89863 1.17893,0 2.28079,-3.44763 2.43244,-7.61089 0.18746,-5.1457 1.92092,-10.48417 4.504,-13.87077 3.09426,-4.05678 12.16433,-7.71797 19.12017,-7.71797 2.1275,0 3.80908,-0.73637 8.09678,-3.54562 5.67459,-3.71792 11.84929,-5.92569 19.42606,-6.94579 4.98148,-0.67068 13.4349,-0.28803 16.18061,0.73245 0.54749,0.20348 3.53381,1.16446 6.63628,2.13553 3.10246,0.97105 6.08878,2.16416 6.63627,2.65135 0.5475,0.48718 1.4434,0.98397 1.99089,1.10395 0.5475,0.11999 1.14476,0.39334 1.32726,0.60744 1.32398,1.5532 6.91128,3.85263 10.28623,4.23326 5.8084,0.65508 11.41418,2.20632 14.17328,3.92207 1.32958,0.82679 2.7808,1.71771 3.22494,1.97982 0.51641,0.30477 1.59296,-0.7161 2.98632,-2.83185 3.11241,-4.72605 5.77462,-6.03693 12.22357,-6.01891 8.00591,0.0223 11.5096,2.15621 15.15298,9.22867 1.632,3.16797 1.57286,8.37448 -0.13244,11.66103 -3.84364,7.40766 -14.10842,11.10471 -21.08354,7.59361 -5.21226,-2.62372 -6.34301,-3.38557 -7.38478,-4.97551 -0.58067,-0.8862 -1.32911,-1.44232 -1.66322,-1.23582 -0.33412,0.20648 -0.52542,0.007 -0.42515,-0.44351 0.26037,-1.16934 -7.80944,-3.88637 -11.60562,-3.90751 l -3.16083,-0.0176 -1.71508,3.62231 c -0.94329,1.99227 -2.13396,3.96995 -2.64592,4.39484 -0.51196,0.42489 -0.93741,1.10924 -0.94544,1.52081 -0.0295,1.51651 -6.64564,11.322 -10.64904,15.78266 -2.26998,2.52927 -5.37904,5.33226 -6.909,6.22887 -2.43966,1.42974 -2.90658,2.09959 -3.79683,5.44692 -0.55829,2.09919 -0.88474,5.01124 -0.72546,6.47122 0.22546,2.06663 -0.1697,3.51169 -1.78435,6.52505 -1.63896,3.05873 -1.91019,4.06787 -1.29319,4.8113 0.42941,0.51742 0.54859,0.94076 0.26483,0.94076 -0.28376,0 -0.0607,0.52261 0.49577,1.16135 0.55643,0.63874 1.28829,2.02354 1.62635,3.07733 l 0.61465,1.91598 6.27414,-0.11916 c 7.81307,-0.14843 14.91531,1.18693 22.27816,4.18873 5.8102,2.36879 11.94124,6.53577 14.15495,9.62046 1.40203,1.95364 4.94246,4.22738 5.5838,3.58604 0.23372,-0.2337 0.42494,-0.10841 0.42494,0.27831 0,0.91617 1.12249,1.31794 7.17508,2.56812 6.03479,1.24653 15.27208,5.84222 18.369,9.13886 0.73307,0.78035 2.12914,2.03866 3.10241,2.79627 0.97325,0.75759 2.8397,3.39465 4.14767,5.86014 2.26213,4.26407 2.37711,4.79554 2.35762,10.89794 -0.0109,3.52838 -0.30459,8.60327 -0.65183,11.27751 -0.5357,4.1257 -0.43206,5.58141 0.68412,9.60927 0.9805,3.53825 1.31546,6.81016 1.31546,12.84946 l 0,8.10245 -3.31689,6.5107 c -2.42284,4.75577 -3.31723,7.26421 -3.31815,9.30622 -10e-4,3.16605 -1.98661,8.96295 -4.17357,12.18703 -0.80768,1.19072 -3.40962,3.65183 -5.78209,5.46915 -2.37246,1.81731 -4.31358,3.47739 -4.31358,3.68907 0,0.67022 -4.5018,4.34192 -8.52378,6.95206 -2.89086,1.87608 -5.25649,2.77745 -9.29078,3.54005 -4.94226,0.93421 -5.9496,0.92732 -11.59641,-0.0792 -4.26185,-0.75968 -7.87165,-0.97798 -11.61349,-0.7023 -7.92796,0.58409 -19.71038,-0.98931 -24.52331,-3.27478 -2.10671,-1.00038 -4.71975,-2.56724 -5.80674,-3.48189 l -1.97637,-1.663 -0.0447,4.53849 c -0.0861,8.72502 -0.55019,10.087 -4.05457,11.89918 -1.69682,0.87746 -1.8733,1.29914 -1.8733,4.47604 l 0,3.50732 3.95289,1.18408 c 2.17409,0.65125 4.72761,1.90206 5.67449,2.7796 1.86526,1.72867 3.64517,5.40325 3.64517,7.52535 0,2.69665 -2.24851,6.04685 -5.27379,7.85777 l -3.02154,1.80866 -50.1185,0.18189 -50.1185,0.18187 -3.60148,-1.84094 z"
       id="path3920" />
    <path
       style="fill:none;stroke:#ff0000;stroke-width:1.86199999;stroke-miterlimit:4;stroke-opacity:1;stroke-dasharray:none"
       d="m 94.684757,799.04072 c 0,-1.51499 -4.182702,-2.66536 -9.905927,-2.72447 l -9.905928,-0.10226 9.323226,-3.35881 c 5.127774,-1.84735 12.646257,-3.37461 16.707712,-3.39392 8.83187,-0.042 14.75818,-2.06105 14.75818,-5.02808 0,-1.32058 -1.5943,-1.31021 -4.09227,0.0266 -2.25074,1.20456 -11.37814,1.60528 -20.283075,0.89046 -13.758985,-1.10443 -15.332349,-1.65163 -10.475274,-3.6431 3.143535,-1.28888 10.959848,-2.96378 17.369566,-3.72197 11.165353,-1.3207 11.685123,-1.70254 12.395763,-9.1059 0.99556,-10.37158 -1.96186,-13.27779 -19.425778,-19.0894 -15.640109,-5.20469 -38.757863,-19.01618 -46.543643,-27.80708 -6.049469,-6.83042 -7.580133,-33.72204 -3.311354,-58.17586 3.417149,-19.5752 4.244888,-52.49603 1.391678,-55.34924 -1.002876,-1.0029 -3.82483,-0.57354 -6.270988,0.95409 -6.440881,4.02241 -7.447766,0.1902 -2.212052,-8.41934 2.497435,-4.10672 4.540807,-9.4107 4.540807,-11.78663 0,-6.0412 5.279137,-9.76608 15.850674,-11.18403 13.816577,-1.85317 24.126364,8.2698 30.79958,30.24154 6.177966,20.34109 13.952138,34.12464 24.441326,43.33427 6.67354,5.85946 10.52033,7.12718 26.03926,8.58142 30.52228,2.86018 73.14896,-0.30588 108.02482,-8.02343 17.33081,-3.83508 33.24789,-7.63954 35.3713,-8.45437 4.77328,-1.83169 11.97233,8.1446 9.85634,13.65874 -0.79724,2.0776 -5.01649,5.98196 -9.37608,8.67633 -4.35961,2.69439 -7.92656,5.789 -7.92656,6.87688 0,2.05936 5.76157,0.64861 23.01842,-5.63622 5.60943,-2.04293 12.895,-3.71439 16.19015,-3.71439 l 5.9912,0 -7.90647,8.15743 c -13.85555,14.2953 -23.16714,19.05646 -43.12032,22.04814 -43.30065,6.49225 -49.0524,8.60252 -66.65272,24.45436 -8.90555,8.02082 -21.05255,17.08325 -26.99335,20.1387 -11.6493,5.99145 -33.38288,24.3639 -33.38288,28.22012 0,1.29917 -3.1466,6.335 -6.99243,11.19077 -8.37869,10.57897 -8.53788,11.64352 -1.7481,11.68972 2.88437,0.0186 6.74505,0.98539 8.57925,2.14613 3.37066,2.13302 1.99818,2.50884 -20.81599,5.6998 -4.4868,0.62757 -11.56662,1.8642 -15.73294,2.74807 -5.009651,1.06278 -7.575123,0.719 -7.575123,-1.01512 z"
       id="path3936"
       inkscape:transform-center-x="-74.285714" />
    <path
       sodipodi:type="arc"
       style="fill:none;stroke:#ff0000;stroke-width:1.41319764;stroke-miterlimit:4;stroke-opacity:1;stroke-dasharray:none;stroke-dashoffset:0"
       id="path3258"
       sodipodi:cx="167.68532"
       sodipodi:cy="164.94318"
       sodipodi:rx="5.0507627"
       sodipodi:ry="4.5456862"
       d="m 172.73608,164.94318 a 5.0507627,4.5456862 0 1 1 -10.10152,0 5.0507627,4.5456862 0 1 1 10.10152,0 z"
       transform="matrix(1.2473922,0,0,1.3917157,-11.815701,-117.50642)" />
    <path
       sodipodi:type="arc"
       style="fill:none;stroke:#ff0000;stroke-width:1.41319764;stroke-miterlimit:4;stroke-opacity:1;stroke-dasharray:none;stroke-dashoffset:0"
       id="path3258-4"
       sodipodi:cx="167.68532"
       sodipodi:cy="164.94318"
       sodipodi:rx="5.0507627"
       sodipodi:ry="4.5456862"
       d="m 172.73608,164.94318 a 5.0507627,4.5456862 0 1 1 -10.10152,0 5.0507627,4.5456862 0 1 1 10.10152,0 z"
       transform="matrix(1.2473922,0,0,1.3917157,-36.779906,164.93634)" />
    <path
       sodipodi:type="arc"
       style="fill:none;stroke:#ff0000;stroke-width:1.41319764;stroke-miterlimit:4;stroke-opacity:1;stroke-dasharray:none;stroke-dashoffset:0"
       id="path3258-0"
       sodipodi:cx="167.68532"
       sodipodi:cy="164.94318"
       sodipodi:rx="5.0507627"
       sodipodi:ry="4.5456862"
       d="m 172.73608,164.94318 a 5.0507627,4.5456862 0 1 1 -10.10152,0 5.0507627,4.5456862 0 1 1 10.10152,0 z"
       transform="matrix(1.2473922,0,0,1.3917157,-92.338293,445.47159)" />
    <path
       style="fill:none;stroke:#ff0000;stroke-width:1.86199999;stroke-miterlimit:4;stroke-opacity:1;stroke-dasharray:none"
       d="m 203.65411,963.48531 c -2.01863,-0.43166 -2.26926,-0.94356 -1.79666,-3.66953 0.30208,-1.74233 0.84789,-6.818 1.21292,-11.27926 l 0.6637,-8.11137 -3.02125,-1.05321 c -2.48214,-0.86528 -4.60226,-0.55754 -11.88165,1.72467 -22.28135,6.98558 -42.9917,6.29943 -59.36714,-1.96687 -11.56086,-5.8359 -16.84829,-13.59947 -15.47933,-22.72839 0.56905,-3.79468 1.60031,-5.486 5.9113,-9.69488 2.8721,-2.80406 8.57045,-7.11304 12.663,-9.5755 7.56115,-4.54951 13.14408,-9.58061 18.41189,-16.59206 1.60786,-2.14006 3.17217,-4.11601 3.47625,-4.39101 1.31879,-1.19269 5.05286,-7.0028 5.05286,-7.86211 0,-0.5187 -3.0375,-1.86822 -6.75,-2.99893 -6.66911,-2.0312 -14.62862,-6.39526 -19,-10.41736 -1.63169,-1.50132 -2.25,-3.19826 -2.25,-6.17507 0,-5.18748 4.22263,-9.82316 14.41708,-15.82732 9.01195,-5.30771 15.79653,-12.31879 21.94661,-22.6793 6.09151,-10.26183 6.39217,-11.37022 3.45302,-12.72953 -1.27419,-0.5893 -4.45421,-2.96345 -7.06671,-5.2759 -4.88895,-4.32744 -5.64688,-6.54531 -3.85101,-11.26881 1.2377,-3.25539 10.94982,-12.84578 24.56335,-24.25548 13.87398,-11.62799 17.98527,-16.20287 22.53766,-25.07904 1.925,-3.75333 4.49276,-7.9474 5.70612,-9.32016 1.98154,-2.24183 2.45351,-2.36352 4.63625,-1.19535 4.32188,2.313 10.87247,9.9084 12.14695,14.08436 0.41964,1.375 2.04088,4.25529 3.60274,6.40065 1.56187,2.14536 2.55796,4.39536 2.21353,5 -0.34443,0.60464 -0.26121,0.76897 0.18493,0.36517 0.44614,-0.40379 3.33079,1.70356 6.41032,4.68302 5.30556,5.13314 10.75046,9.60177 23.5115,19.29592 7.15072,5.43217 7.48493,8.30844 1.58478,13.63888 -2.20159,1.989 -5.01834,3.61636 -6.25945,3.61636 -1.24112,0 -2.81864,0.9 -3.5056,2 -0.68696,1.1 -1.9202,2 -2.74054,2 -1.69126,0 -1.99955,1.56799 -0.49153,2.5 0.55,0.33992 1,1.71648 1,3.05902 0,1.50309 0.57634,2.44098 1.5,2.44098 0.92639,0 1.5,0.93971 1.5,2.45737 0,1.60981 1.20715,3.42055 3.49997,5.25 1.92498,1.53595 3.49998,3.2971 3.5,3.91366 5e-5,1.72245 11.41436,15.52542 15.45485,18.68906 1.97392,1.54555 3.33072,3.22789 3.01512,3.73855 -0.3156,0.51065 0.0543,0.68742 0.82198,0.39284 2.3755,-0.91157 7.70808,4.94102 7.70808,8.45973 0,3.71301 -2.10075,6.00096 -8.23773,8.97183 -2.52096,1.22037 -4.83464,2.87318 -5.14153,3.67291 -0.30688,0.79973 -1.27668,1.45405 -2.1551,1.45405 -0.87842,0 -2.47195,0.46819 -3.54119,1.04043 -1.8459,0.9879 -1.7416,1.33857 2.06575,6.94513 2.20539,3.24759 4.0098,6.09783 4.0098,6.33387 0,0.23604 1.12759,1.72323 2.50576,3.30487 1.37817,1.58163 6.12616,7.6007 10.5511,13.3757 4.42494,5.775 12.18484,14.9363 17.24424,20.35844 10.89043,11.67125 10.66412,11.35252 10.68359,15.0464 0.0202,3.83103 -5.97121,9.56816 -12.56643,12.03312 -2.70504,1.011 -8.09627,3.30688 -11.98051,5.10194 -16.34698,7.55461 -29.73079,10.04945 -48.74965,9.08728 -14.6903,-0.74318 -19.90757,-1.46305 -19.17652,-2.64592 0.27015,-0.43711 -0.31257,-0.58456 -1.29494,-0.32766 -1.01797,0.2662 -1.79609,1.40877 -1.8093,2.65674 -0.12593,11.88825 -0.26127,12.41045 -3.37813,13.03382 -4.76046,0.95209 -15.32292,1.53901 -17.8751,0.99325 z"
       id="path2842" />
    <path
       sodipodi:type="arc"
       style="fill:none;stroke:#ff0000;stroke-width:1.41319764;stroke-miterlimit:4;stroke-opacity:1;stroke-dasharray:none;stroke-dashoffset:0"
       id="path3258-0-2"
       sodipodi:cx="167.68532"
       sodipodi:cy="164.94318"
       sodipodi:rx="5.0507627"
       sodipodi:ry="4.5456862"
       d="m 172.73608,164.94318 a 5.0507627,4.5456862 0 1 1 -10.10152,0 5.0507627,4.5456862 0 1 1 10.10152,0 z"
       transform="matrix(1.2473922,0,0,1.3917157,6.9735491,519.47015)" />
  </g>
</svg>
